{"title":"We.are.what.we.are.2010.DVDRiP.XviD-UNVEiL","uid":6261419,"size":730791021,"categoryP":"video","categoryS":"movies","magnet":"?xt=urn:btih:3a0fff0ad68c878d9b4b15ab3dfaf3419d69d56c&amp;dn=We.are.what.we.are.2010.DVDRiP.XviD-UNVEiL&amp;tr=udp%3A%2F%2Ftracker.openbittorrent.com%3A80&amp;tr=udp%3A%2F%2Fopen.demonii.com%3A1337&amp;tr=udp%3A%2F%2Ftracker.coppersurfer.tk%3A6969&amp;tr=udp%3A%2F%2Fexodus.desync.com%3A6969","seeders":1,"leechers":0,"uploader":"TvTeam","files":5,"time":1300772371,"description":". \n  &lt;a href=&quot;\nhttp://www.torrenting.com/&quot; rel=&quot;nofollow&quot; target=&quot;_NEW&quot;&gt;\nhttp://www.torrenting.com/&lt;/a&gt;        :     Greatest Movie Tracker on The Net!!!\n &lt;a href=&quot;\nhttp://www.Torrenting.com&quot; rel=&quot;nofollow&quot; target=&quot;_NEW&quot;&gt;\nhttp://www.Torrenting.com&lt;/a&gt;          :     Once &amp; For all ;)\n\n\n               www . Torrenting . Com \n\n(((((((((((((= Enjoy No RAR releases =))))))))))))))))))))\n\n\n...................................NFO:....................................\n\n.We.are.what.we.are.2010.DVDRiP.XviD-UNVEiL\n\nrls 21/03/2011\nrtl 21/03/2011 (uk)\n\nSpanish, english subbed &lt;a href=&quot;\nhttp://www.imdb.com/title/tt1620604/&quot; rel=&quot;nofollow&quot; target=&quot;_NEW&quot;&gt;\nhttp://www.imdb.com/title/tt1620604/&lt;/a&gt;\n\nVideo\nID                               : 0\nFormat                           : MPEG-4 Visual\nFormat profile                   : Advanced Simple@L5\nFormat settings, BVOP            : 2\nFormat settings, QPel            : No\nFormat settings, GMC             : No warppoints\nFormat settings, Matrix          : Default (H.263)\nCodec ID                         : XVID\nCodec ID/Hint                    : XviD\nDuration                         : 1h 25mn\nBit rate                         : 875 Kbps\nWidth                            : 640 pixels\nHeight                           : 256 pixels\nDisplay aspect ratio             : 2.500\nFrame rate                       : 25.000 fps\nColor space                      : YUV\nChroma subsampling               : 4:2:0\nBit depth                        : 8 bits\nScan type                        : Progressive\nCompression mode                 : Lossy\nBits/(Pixel*Frame)               : 0.214\nStream size                      : 535 MiB (77%)\nWriting library                  : XviD 1.2.1 (UTC 2008-12-04)\n\nAudio\nID                               : 1\nFormat                           : AC-3\nFormat/Info                      : Audio Coding 3\nMode extension                   : CM (complete main)\nCodec ID                         : 2000\nDuration                         : 1h 25mn\nBit rate mode                    : Constant\nBit rate                         : 256 Kbps\nChannel(s)                       : 2 channels\nChannel positions                : Front: L R\nSampling rate                    : 48.0 KHz\nBit depth                        : 16 bits\nCompression mode                 : Lossy\nStream size                      : 156 MiB (22%)\nAlignment                        : Split accross interleaves\nInterleave, duration             : 40 ms (1.00 video frame)\nInterleave, preload duration     : 500 ms","torrent":{"xt":"urn:btih:3a0fff0ad68c878d9b4b15ab3dfaf3419d69d56c","amp;dn":"We.are.what.we.are.2010.DVDRiP.XviD-UNVEiL","amp;tr":["udp%3A%2F%2Ftracker.openbittorrent.com%3A80","udp%3A%2F%2Fopen.demonii.com%3A1337","udp%3A%2F%2Ftracker.coppersurfer.tk%3A6969","udp%3A%2F%2Fexodus.desync.com%3A6969"],"infoHash":"3a0fff0ad68c878d9b4b15ab3dfaf3419d69d56c","infoHashBuffer":{"type":"Buffer","data":[58,15,255,10,214,140,135,141,155,75,21,171,61,250,243,65,157,105,213,108]},"announce":[],"urlList":[]}}